# xmcd
#
# Track frame offsets:
#  150
#  21427
#  36854
#  70205
#  98939
#
# Disc length: 1562 seconds
#
# Revision: 0
# Processed by: cddbd v1.5.1PL0 Copyright (c) Steve Scherf et al.
# Submitted via: Collectorz.com Music Collector 6.9
#
DISCID=3f061805
DTITLE=joe ely - Live At Union Station, June 28th 1996 - Disc 2
DYEAR=1996
DGENRE=
TTITLE0=Road Hawg
TTITLE1=Oh Boy
TTITLE2=Settle For Love
TTITLE3=A Thousand Miles From Home
TTITLE4=All Just To Get To You
EXTD=
EXTT0=
EXTT1=
EXTT2=
EXTT3=
EXTT4=
PLAYORDER=
